<svg xmlns="http://www.w3.org/2000/svg" width="24" height="24" fill-rule="evenodd" stroke-linejoin="round" stroke-miterlimit="2" clip-rule="evenodd" id="rupee-sign"><path d="M610.012,376L598,376L598,378L604,378C605.105,378 606,378.895 606,380L606,380L598,380L598,382L606,382C606,383.105 605.105,384 604,384C604,384 599,384 599,384C598.596,384 598.231,384.244 598.076,384.617C597.921,384.991 598.007,385.421 598.293,385.707L604.293,391.707L605.707,390.293L601.414,386C601.414,386 604,386 604,386C606.209,386 608,384.209 608,382L608,382L610.012,382L610.012,380L608,380L608,380C608,379.271 607.805,378.588 607.465,378L610.012,378L610.012,376Z" transform="translate(-592 -372)"></path></svg>